<?xml version="1.0" encoding="UTF-8"?>
<svg id="_Слой_1" data-name="Слой 1" xmlns="http://www.w3.org/2000/svg" viewBox="0 0 2950.13 2920.21">
  <defs>
    <style>
      .cls-1 {
        fill: #a656ff;
      }
    </style>
  </defs>
  <path class="cls-1" d="M1218.4,2.19c1.4,1.6,16.3,18.9,33.1,38.4,16.7,19.5,64.3,74.2,105.7,121.5,41.5,47.3,128.5,146.7,193.5,221,347.3,396.7,470.1,537,528.5,603.5,35.5,40.4,88.8,101.2,118.5,135,71.3,81.2,215.4,244.6,258.9,293.5,19.1,21.4,34.7,39.5,34.7,40.2,0,.6-6.2,6-13.7,12-45.2,35.4-194.9,153.5-267.8,211.2-98.6,78.1-195.5,154.7-265.5,210-15.7,12.4-52.3,41.4-81.5,64.5-29.1,23.1-71.9,56.8-95,75-23.1,18.1-58.9,46.3-79.5,62.6-53.8,42.5-62.4,49-63.5,48.7-1.2-.4-1.9-1167.7-.8-1167.7,.5,0,5.3,3.5,10.8,7.7,50.5,38.8,177.8,133.1,290,214.9,20.4,14.9,53,38.7,72.5,53,36.5,26.7,100.4,73.5,142,103.9,12.9,9.4,41.5,30.1,63.5,46,51.9,37.4,70.7,51.4,72.3,53.6,3.8,5.4,10.2,3.9,10.2-2.5,0-4-2.8-7.7-31.5-40.8-11.6-13.4-53.2-62.3-92.5-108.8-136.5-161.4-208.7-246.9-264-312-30.6-36-77.2-90.9-103.5-122-145.9-172.1-216.9-255.4-269.5-316.6-15.7-18.1-30.6-35.5-33.1-38.4l-4.6-5.4-.7,181.4c-1.3,360.4-2.7,651.3-4.1,903.5-.8,141.3-1.8,344.1-2.1,450.5s-.9,201.4-1.3,211c-.8,18.3,.5,243.4,1.7,312.4l.7,39.9,13.7-10.4c7.5-5.7,27.8-21.4,45-34.9,97.1-75.8,256.3-199.7,359.3-279.5,19.8-15.3,41.9-32.4,49-38,7.2-5.6,37.3-29,67-52s59.9-46.4,67-52c7.2-5.6,35.3-27.4,62.5-48.5,114.8-89,209.8-162.7,227.5-176.5,12.5-9.8,97.9-76,192-149,79.2-61.4,145.8-113.2,234-181.9,146.8-114.3,152.8-119.1,152.3-120.7-.2-.5-2.9-3-6-5.6-3.1-2.7-29.4-25.1-58.5-49.9-68.4-58.3-138.3-117.4-308.3-260.6-76.2-64.1-157.6-132.8-181-152.5s-74.9-63.1-114.5-96.4-99.2-83.4-132.5-111.5c-33.3-28-87.5-73.7-120.5-101.4-78.4-65.9-480.6-404.6-554.5-466.9-96.3-81.2-152.1-128.3-182-153.6-26.7-22.5-71.6-59.1-75-61-.8-.4-.3,.5,1.1,2.1Zm103.7,99.1c2.5,2.1,5,4.1,5.6,4.5,.7,.5,.6,1.3-.5,2.3-1.5,1.5-1.9,1.3-5.3-2.7-4.1-4.7-6.1-7.8-5-7.8,.4,0,2.7,1.7,5.2,3.7Zm906.2,1293.4c2.8,3.9,2,4.7-2,1.9-2.5-1.8-2.8-2.5-1.9-3.6,1.5-1.8,1.4-1.9,3.9,1.7Z"/>
  <path class="cls-1" d="M1460.3,323.29c-4.1,3.2-12.4,9.6-18.5,14.3-63.3,49.5-252.3,196.7-327,254.6-188.7,146.4-213.6,165.7-228,176.9-7.1,5.6-35.3,27.4-62.5,48.5-85.8,66.5-144.9,112.4-232.5,180.4-78.1,60.6-115.7,89.8-207,160.6C212.7,1292.09,32.4,1432.59,11.2,1449.69c-13,10.6-12.8,10.3-8.8,13.6,1.9,1.6,5.4,4.6,7.9,6.9s18.7,16.2,36,30.9,38.5,32.7,47,39.9c36.8,31.3,177.7,150.2,262.5,221.6,50.6,42.6,112,94.3,136.5,115,62.1,52.4,109.9,92.7,186.5,157.1,36.3,30.5,90.3,75.9,120,101,29.7,25,70.9,59.7,91.5,77,87.4,73.5,495.6,417.2,544.5,458.4,29.8,25.1,138.9,117.2,176.5,148.9,22.8,19.2,48.5,40.9,57,48.1,16,13.7,61.4,50.4,64,52,.8,.4,.6-.3-.6-1.6-1.1-1.3-14.4-16.8-29.4-34.4-15.1-17.6-68.6-79-119-136.5-50.3-57.5-137.2-156.7-193-220.5-316.1-361.1-437.3-499.5-478.5-546.5-25.3-28.9-67.2-76.6-93-106-122.2-139.4-259.2-294.7-321.9-365.3-21-23.5-38.1-43.5-38.1-44.4,0-1,9-8.8,22-19,12.1-9.6,33.3-26.2,47-37,45.5-35.9,195.7-154.4,215-169.8,41.1-32.7,166.3-131.7,287.5-227.4,15.7-12.4,42.4-33.6,59.5-47.1,17-13.5,44.7-35.4,61.5-48.6s54.1-42.7,83-65.4c71.1-56.1,89-70,90.1-70,.5,0,1.2,.6,1.4,1.2,.3,.7,.4,263.6,.3,584.2l-.3,582.9-23.5-17.8c-69.2-52.3-145.9-109.1-251.5-186.3-75-54.8-137.5-100.6-169-123.7-34.5-25.3-122.1-89-154-112-34.5-24.8-51.1-37.3-54.4-40.9-2.9-3.1-5.2-3.3-7.4-.8-4.5,4.9-2.2,8.7,21.8,35.8,7.7,8.8,46.2,53.9,85.5,100.4,183.7,217.3,380.3,449.3,512.9,605.5,72.2,85,172.7,202.1,175.3,204.2,1.3,1.2,1.6-18.7,2.2-181,1.2-333.6,2.6-634.2,3.6-816.7,2.2-388.1,3-548.2,3.1-639,.1-52,.4-101,.8-109,1.2-25.5-1.4-350-2.8-350-.3,0-4,2.6-8.1,5.7ZM723.7,1523.69c1.4,1.1,2.4,2.5,2.1,3-1.1,1.7-3.1,.9-4.8-2.1-2.1-3.5-1.1-3.9,2.7-.9Zm909.6,1298.1c0,1.3-2.9-.5-7.8-4.7-3.6-3.1-4.1-4-3-5.2,1.1-1.4,1.9-.8,6,3.8,2.7,2.9,4.8,5.7,4.8,6.1Z"/>
</svg>